<?xml version="1.0" encoding="UTF-8"?>
<svg xmlns="http://www.w3.org/2000/svg" xmlns:xlink="http://www.w3.org/1999/xlink" viewBox="0 0 480 480" width="480px" height="480px">
<g id="surface283119197">
<path style=" stroke:none;fill-rule:nonzero;fill:rgb(18.039216%,80.000001%,44.313726%);fill-opacity:1;" d="M 240 462 C 117.589844 462 18 362.410156 18 240 C 18 117.589844 117.589844 18 240 18 C 362.410156 18 462 117.589844 462 240 C 462 362.410156 362.410156 462 240 462 Z M 240 462 "/>
<path style=" stroke:none;fill-rule:nonzero;fill:rgb(10.196079%,73.725492%,61.176473%);fill-opacity:1;" d="M 240 24 C 359.101562 24 456 120.898438 456 240 C 456 359.101562 359.101562 456 240 456 C 120.898438 456 24 359.101562 24 240 C 24 120.898438 120.898438 24 240 24 M 240 12 C 114.085938 12 12 114.085938 12 240 C 12 365.914062 114.085938 468 240 468 C 365.914062 468 468 365.914062 468 240 C 468 114.085938 365.914062 12 240 12 Z M 240 12 "/>
<path style=" stroke:none;fill-rule:nonzero;fill:rgb(100%,100%,100%);fill-opacity:1;" d="M 252 192 L 252 208.835938 L 271.511719 218.113281 L 300 210.730469 L 300 192 C 300 158.914062 273.085938 132 240 132 C 206.914062 132 180 158.914062 180 192 L 180 276 C 180 282.625 174.613281 288 168 288 C 161.386719 288 156 282.625 156 276 L 156 240 L 108 240 L 108 276 C 108 309.085938 134.914062 336 168 336 C 201.085938 336 228 309.085938 228 276 L 228 192 C 228 185.375 233.386719 180 240 180 C 246.613281 180 252 185.375 252 192 Z M 252 192 "/>
<path style=" stroke:none;fill-rule:nonzero;fill:rgb(100%,100%,100%);fill-opacity:1;" d="M 324 240 L 324 276 C 324 282.625 318.613281 288 312 288 C 305.386719 288 300 282.625 300 276 L 300 241.714844 L 273.757812 248.519531 C 272.519531 248.832031 271.261719 249 270 249 C 267.78125 249 265.585938 248.507812 263.554688 247.546875 L 252 242.050781 L 252 276 C 252 309.085938 278.914062 336 312 336 C 345.085938 336 372 309.085938 372 276 L 372 240 Z M 324 240 "/>
</g>
</svg>
