<svg xmlns="http://www.w3.org/2000/svg"  viewBox="0 0 40 40" width="80px" height="80px"><path fill="#f78f8f" d="M20,38.5C9.799,38.5,1.5,30.201,1.5,20S9.799,1.5,20,1.5S38.5,9.799,38.5,20S30.201,38.5,20,38.5z"/><path fill="#c74343" d="M20,2c9.925,0,18,8.075,18,18s-8.075,18-18,18S2,29.925,2,20S10.075,2,20,2 M20,1 C9.507,1,1,9.507,1,20s8.507,19,19,19s19-8.507,19-19S30.493,1,20,1L20,1z"/><g><path fill="#fff" d="M21,16v1.403l1.626,0.773L25,17.561V16c0-2.757-2.243-5-5-5s-5,2.243-5,5v7c0,0.552-0.449,1-1,1 s-1-0.448-1-1v-3H9v3c0,2.757,2.243,5,5,5s5-2.243,5-5v-7c0-0.552,0.449-1,1-1S21,15.448,21,16z"/><path fill="#fff" d="M27,20v3c0,0.552-0.449,1-1,1s-1-0.448-1-1v-2.857l-2.187,0.567c-0.103,0.026-0.208,0.04-0.313,0.04 c-0.185,0-0.368-0.041-0.537-0.121L21,20.171V23c0,2.757,2.243,5,5,5s5-2.243,5-5v-3H27z"/></g></svg>